<svg xmlns="http://www.w3.org/2000/svg" xmlns:xlink="http://www.w3.org/1999/xlink" width="500" zoomAndPan="magnify" viewBox="0 0 375 374.999991" height="500" preserveAspectRatio="xMidYMid meet" version="1.0"><defs><g/><clipPath id="da8c2fd0d1"><path d="M 187.5 0 C 83.945312 0 0 83.945312 0 187.5 C 0 291.054688 83.945312 375 187.5 375 C 291.054688 375 375 291.054688 375 187.5 C 375 83.945312 291.054688 0 187.5 0 Z M 187.5 0 " clip-rule="nonzero"/></clipPath><clipPath id="2a133fbb85"><path d="M 0 0 L 375 0 L 375 375 L 0 375 Z M 0 0 " clip-rule="nonzero"/></clipPath><clipPath id="a33399232e"><path d="M 187.5 0 C 83.945312 0 0 83.945312 0 187.5 C 0 291.054688 83.945312 375 187.5 375 C 291.054688 375 375 291.054688 375 187.5 C 375 83.945312 291.054688 0 187.5 0 Z M 187.5 0 " clip-rule="nonzero"/></clipPath><clipPath id="3a79aea9c3"><rect x="0" width="375" y="0" height="375"/></clipPath><clipPath id="6a4dbe831a"><rect x="0" width="245" y="0" height="232"/></clipPath></defs><g clip-path="url(#da8c2fd0d1)"><g transform="matrix(1, 0, 0, 1, 0, 0)"><g clip-path="url(#3a79aea9c3)"><g clip-path="url(#2a133fbb85)"><g clip-path="url(#a33399232e)"><rect x="-82.5" width="540" fill="#ffffff" height="539.999987" y="-82.499998" fill-opacity="1"/></g></g></g></g></g><g transform="matrix(1, 0, 0, 1, 66, 72)"><g clip-path="url(#6a4dbe831a)"><g fill="#000000" fill-opacity="1"><g transform="translate(0.0564113, 182.531185)"><g><path d="M 68.59375 -139.28125 L 97.28125 -139.28125 L 97.28125 -42.859375 C 97.28125 -33.992188 95.316406 -26.164062 91.390625 -19.375 C 87.472656 -12.582031 81.941406 -7.335938 74.796875 -3.640625 C 67.660156 0.0546875 59.597656 1.90625 50.609375 1.90625 C 35.867188 1.90625 24.382812 -1.835938 16.15625 -9.328125 C 7.9375 -16.816406 3.828125 -27.414062 3.828125 -41.125 L 32.71875 -41.125 C 32.71875 -34.300781 34.148438 -29.265625 37.015625 -26.015625 C 39.890625 -22.765625 44.421875 -21.140625 50.609375 -21.140625 C 56.085938 -21.140625 60.453125 -23.019531 63.703125 -26.78125 C 66.960938 -30.539062 68.59375 -35.898438 68.59375 -42.859375 Z M 68.59375 -139.28125 "/></g></g></g><g fill="#000000" fill-opacity="1"><g transform="translate(109.481941, 182.531185)"><g><path d="M 122.625 -17.59375 C 117.46875 -11.414062 110.164062 -6.617188 100.71875 -3.203125 C 91.28125 0.203125 80.828125 1.90625 69.359375 1.90625 C 57.296875 1.90625 46.722656 -0.722656 37.640625 -5.984375 C 28.554688 -11.242188 21.539062 -18.878906 16.59375 -28.890625 C 11.65625 -38.898438 9.117188 -50.664062 8.984375 -64.1875 L 8.984375 -73.65625 C 8.984375 -87.5625 11.328125 -99.597656 16.015625 -109.765625 C 20.703125 -119.941406 27.460938 -127.722656 36.296875 -133.109375 C 45.128906 -138.492188 55.476562 -141.1875 67.34375 -141.1875 C 83.863281 -141.1875 96.773438 -137.25 106.078125 -129.375 C 115.390625 -121.5 120.90625 -110.035156 122.625 -94.984375 L 94.703125 -94.984375 C 93.421875 -102.953125 90.597656 -108.785156 86.234375 -112.484375 C 81.867188 -116.191406 75.859375 -118.046875 68.203125 -118.046875 C 58.441406 -118.046875 51.007812 -114.378906 45.90625 -107.046875 C 40.8125 -99.710938 38.234375 -88.804688 38.171875 -74.328125 L 38.171875 -65.421875 C 38.171875 -50.828125 40.941406 -39.796875 46.484375 -32.328125 C 52.035156 -24.867188 60.164062 -21.140625 70.875 -21.140625 C 81.65625 -21.140625 89.34375 -23.4375 93.9375 -28.03125 L 93.9375 -52.03125 L 67.828125 -52.03125 L 67.828125 -73.171875 L 122.625 -73.171875 Z M 122.625 -17.59375 "/></g></g></g></g></g></svg>