<svg width="2035" height="1338" viewBox="0 0 2035 1338" fill="none" xmlns="http://www.w3.org/2000/svg">
<rect width="2035" height="1338" fill="#F5F5F5"/>
<rect x="115" y="130" width="1920" height="1080" fill="#FFF5EE"/>
<path d="M1522 26L1522 1334" stroke="#C60C30" stroke-width="40"/>
<path d="M16 1172H1320C1331.05 1172 1340 1163.05 1340 1152V616C1340 604.954 1331.05 596 1320 596H6" stroke="#00A1DE" stroke-width="40"/>
<path d="M0 288H1792C1847.23 288 1892 332.772 1892 388V518V882V1030.77C1892 1057.17 1881.51 1082.49 1862.85 1101.15C1860.95 1103.05 1858.91 1104.79 1856.73 1106.35L1810 1140L1770 1164L1762.26 1169.16C1748.36 1178.43 1740 1194.04 1740 1210.76V1338" stroke="#009B3A" stroke-width="40"/>
<path d="M114 340H1790C1817.61 340 1840 362.386 1840 390V726V910V1028C1840 1055.61 1817.61 1078 1790 1078H1366H1092C1036.77 1078 992 1033.23 992 978V704V492C992 436.772 947.228 392 892 392H558H114" stroke="#E27EA6" stroke-width="40"/>
<path d="M1098 0V948C1098 959.046 1106.95 968 1118 968H1722C1733.05 968 1742 959.046 1742 948V462C1742 450.954 1733.05 442 1722 442H1118C1106.95 442 1098 433.046 1098 422V0Z" stroke="#522398" stroke-width="40"/>
<path d="M1046 0V394M1046 394V972C1046 999.614 1068.39 1022 1096 1022H1406H1768C1779.05 1022 1788 1013.05 1788 1002V630V414C1788 402.954 1779.05 394 1768 394H1660H1046Z" stroke="#62361B" stroke-width="40"/>
<path d="M1688 1336V914M1688 914V512C1688 500.954 1679.05 492 1668 492H1166C1154.95 492 1146 500.954 1146 512V894C1146 905.046 1154.95 914 1166 914H1688Z" stroke="#F9461C" stroke-width="40"/>
</svg>
